SplineFontDB: 3.0
FontName: Sierra1
FullName: Sierra1
FamilyName: Sierra1
Weight: Book
Copyright: Copyright (c) 2018, Fabrizio,,,
Version: 001.000
ItalicAngle: 0
UnderlinePosition: -120
UnderlineWidth: 40
Ascent: 640
Descent: 160
InvalidEm: 0
sfntRevision: 0x00010000
LayerCount: 2
Layer: 0 1 "Back" 1
Layer: 1 1 "Fore" 0
XUID: [1021 183 -1231347742 5813814]
StyleMap: 0x0000
FSType: 0
OS2Version: 4
OS2_WeightWidthSlopeOnly: 0
OS2_UseTypoMetrics: 1
CreationTime: 1536677697
ModificationTime: 1566211499
PfmFamily: 17
TTFWeight: 400
TTFWidth: 5
LineGap: 72
VLineGap: 0
Panose: 2 0 5 3 0 0 0 0 0 0
OS2TypoAscent: 640
OS2TypoAOffset: 0
OS2TypoDescent: -160
OS2TypoDOffset: 0
OS2TypoLinegap: 72
OS2WinAscent: 800
OS2WinAOffset: 0
OS2WinDescent: 0
OS2WinDOffset: 0
HheadAscent: 800
HheadAOffset: 0
HheadDescent: 0
HheadDOffset: 0
OS2SubXSize: 520
OS2SubYSize: 560
OS2SubXOff: 0
OS2SubYOff: 112
OS2SupXSize: 520
OS2SupYSize: 560
OS2SupXOff: 0
OS2SupYOff: 384
OS2StrikeYSize: 39
OS2StrikeYPos: 207
OS2Vendor: 'PfEd'
OS2CodePages: 00000001.00000000
OS2UnicodeRanges: 00000001.00000000.00000000.00000000
MarkAttachClasses: 1
DEI: 91125
ShortTable: cvt  2
  26
  507
EndShort
ShortTable: maxp 16
  1
  0
  6
  32
  8
  0
  0
  2
  0
  1
  1
  0
  64
  46
  0
  0
EndShort
LangName: 1033 "" "" "Regular" "FontForge 2.0 : Sierra1 : 13-9-2018"
GaspTable: 1 65535 2 0
Encoding: UnicodeBmp
UnicodeInterp: none
NameList: AGL For New Fonts
DisplaySize: -48
AntiAlias: 1
FitToEm: 0
WinInfo: 0 35 4
BeginPrivate: 0
EndPrivate
Grid
-800 1132.80004883 m 0
 1600 1132.80004883 l 1024
-1099 1040 m 0
 -1099 -560 l 1024
-1099 1040 m 0
 -1099 -560 l 1024
EndSplineSet
BeginChars: 65539 80

StartChar: .notdef
Encoding: 65536 -1 0
Width: 288
Flags: W
LayerCount: 2
Fore
SplineSet
26 0 m 1,0,-1
 26 533 l 1,1,-1
 236 533 l 1,2,-1
 236 0 l 1,3,-1
 26 0 l 1,0,-1
52 26 m 1,4,-1
 210 26 l 1,5,-1
 210 507 l 1,6,-1
 52 507 l 1,7,-1
 52 26 l 1,4,-1
EndSplineSet
EndChar

StartChar: zero
Encoding: 48 48 3
Width: 800
Flags: W
LayerCount: 2
Fore
SplineSet
400 500 m 1,0,-1
 500 500 l 1,1,-1
 500 300 l 1,2,-1
 400 300 l 1,3,-1
 400 500 l 1,0,-1
300 400 m 1,4,-1
 400 400 l 1,5,-1
 400 200 l 1,6,-1
 300 200 l 1,7,-1
 300 400 l 1,4,-1
200 300 m 1,8,-1
 300 300 l 1,9,-1
 300 100 l 1,10,-1
 200 100 l 1,11,-1
 200 300 l 1,8,-1
0 600 m 1,12,-1
 200 600 l 1,13,-1
 200 100 l 1,14,-1
 0 100 l 1,15,-1
 0 600 l 1,12,-1
500 600 m 1,16,-1
 700 600 l 1,17,-1
 700 100 l 1,18,-1
 500 100 l 1,19,-1
 500 600 l 1,16,-1
100 700 m 1,20,-1
 600 700 l 1,21,-1
 600 600 l 1,22,-1
 100 600 l 1,23,-1
 100 700 l 1,20,-1
100 100 m 1,24,-1
 600 100 l 1,25,-1
 600 0 l 1,26,-1
 100 0 l 5,27,-1
 100 100 l 1,24,-1
EndSplineSet
EndChar

StartChar: one
Encoding: 49 49 4
Width: 800
Flags: W
LayerCount: 2
Fore
SplineSet
100 600 m 1,0,-1
 200 600 l 1,1,-1
 200 500 l 1,2,-1
 100 500 l 1,3,-1
 100 600 l 1,0,-1
200 700 m 1,4,-1
 400 700 l 1,5,-1
 400 100 l 1,6,-1
 200 100 l 1,7,-1
 200 700 l 1,4,-1
0 100 m 1,8,-1
 600 100 l 1,9,-1
 600 0 l 1,10,-1
 0 0 l 1,11,-1
 0 100 l 1,8,-1
EndSplineSet
EndChar

StartChar: two
Encoding: 50 50 5
Width: 800
Flags: W
LayerCount: 2
Fore
SplineSet
0 600 m 1,0,-1
 200 600 l 1,1,-1
 200 500 l 1,2,-1
 0 500 l 1,3,-1
 0 600 l 1,0,-1
100 700 m 1,4,-1
 500 700 l 1,5,-1
 500 600 l 1,6,-1
 100 600 l 5,7,-1
 100 700 l 1,4,-1
400 600 m 1,8,-1
 600 600 l 1,9,-1
 600 400 l 1,10,-1
 400 400 l 1,11,-1
 400 600 l 1,8,-1
200 400 m 1,12,-1
 500 400 l 1,13,-1
 500 300 l 1,14,-1
 200 300 l 1,15,-1
 200 400 l 1,12,-1
100 300 m 1,16,-1
 300 300 l 1,17,-1
 300 200 l 1,18,-1
 100 200 l 1,19,-1
 100 300 l 1,16,-1
400 200 m 1,20,-1
 600 200 l 1,21,-1
 600 100 l 1,22,-1
 400 100 l 1,23,-1
 400 200 l 1,20,-1
0 200 m 1,24,-1
 200 200 l 1,25,-1
 200 100 l 1,26,-1
 0 100 l 1,27,-1
 0 200 l 1,24,-1
0 100 m 1,28,-1
 600 100 l 1,29,-1
 600 0 l 1,30,-1
 0 0 l 1,31,-1
 0 100 l 1,28,-1
EndSplineSet
EndChar

StartChar: three
Encoding: 51 51 6
Width: 800
VWidth: 0
LayerCount: 2
Fore
SplineSet
200 400 m 1,0,-1
 500 400 l 1,1,-1
 500 300 l 1,2,-1
 200 300 l 1,3,-1
 200 400 l 1,0,-1
400 400 m 1,4,-1
 600 400 l 1,5,-1
 600 600 l 1,6,-1
 400 600 l 1,7,-1
 400 400 l 1,4,-1
100 600 m 1,8,-1
 500 600 l 1,9,-1
 500 700 l 1,10,-1
 100 700 l 1,11,-1
 100 600 l 1,8,-1
0 600 m 1025,12,-1
0 500 m 1,13,-1
 200 500 l 1,14,-1
 200 600 l 1,15,-1
 0 600 l 1,16,-1
 0 500 l 1,13,-1
400 300 m 1,17,-1
 600 300 l 1,18,-1
 600 100 l 1,19,-1
 400 100 l 1,20,-1
 400 300 l 1,17,-1
100 100 m 1,21,-1
 500 100 l 1,22,-1
 500 0 l 1,23,-1
 100 0 l 1,24,-1
 100 100 l 1,21,-1
0 200 m 1,25,-1
 200 200 l 1,26,-1
 200 100 l 1,27,-1
 0 100 l 1,28,-1
 0 200 l 1,25,-1
EndSplineSet
EndChar

StartChar: four
Encoding: 52 52 7
Width: 800
VWidth: 0
LayerCount: 2
Fore
SplineSet
300 700 m 1,0,-1
 400 700 l 1,1,-1
 400 600 l 1,2,-1
 300 600 l 5,3,-1
 300 700 l 1,0,-1
200 600 m 1,4,-1
 400 600 l 1,5,-1
 400 500 l 1,6,-1
 200 500 l 1,7,-1
 200 600 l 1,4,-1
100 500 m 1,8,-1
 300 500 l 1,9,-1
 300 400 l 1,10,-1
 100 400 l 1,11,-1
 100 500 l 1,8,-1
400 700 m 1,12,-1
 600 700 l 1,13,-1
 600 300 l 1,14,-1
 400 300 l 1,15,-1
 400 700 l 1,12,-1
0 300 m 1025,16,-1
0 400 m 1,17,-1
 200 400 l 1,18,-1
 200 300 l 1,19,-1
 0 300 l 1,20,-1
 0 400 l 1,17,-1
400 200 m 1,21,-1
 600 200 l 1,22,-1
 600 100 l 1,23,-1
 400 100 l 1,24,-1
 400 200 l 1,21,-1
300 100 m 1,25,-1
 700 100 l 1,26,-1
 700 0 l 1,27,-1
 300 0 l 1,28,-1
 300 100 l 1,25,-1
0 300 m 1,29,-1
 700 300 l 1,30,-1
 700 200 l 1,31,-1
 0 200 l 1,32,-1
 0 300 l 1,29,-1
EndSplineSet
EndChar

StartChar: five
Encoding: 53 53 9
Width: 800
VWidth: 0
LayerCount: 2
Fore
SplineSet
0 700 m 1,0,-1
 600 700 l 1,1,-1
 600 600 l 1,2,-1
 0 600 l 5,3,-1
 0 700 l 1,0,-1
0 600 m 1,4,-1
 200 600 l 1,5,-1
 200 500 l 1,6,-1
 0 500 l 1,7,-1
 0 600 l 1,4,-1
0 500 m 1,8,-1
 500 500 l 1,9,-1
 500 400 l 1,10,-1
 0 400 l 1,11,-1
 0 500 l 1,8,-1
400 400 m 1,12,-1
 600 400 l 1,13,-1
 600 100 l 1,14,-1
 400 100 l 1,15,-1
 400 400 l 1,12,-1
100 100 m 1,16,-1
 500 100 l 1,17,-1
 500 0 l 1,18,-1
 100 0 l 1,19,-1
 100 100 l 1,16,-1
0 200 m 1,20,-1
 200 200 l 1,21,-1
 200 100 l 1,22,-1
 0 100 l 1,23,-1
 0 200 l 1,20,-1
EndSplineSet
EndChar

StartChar: six
Encoding: 54 54 10
Width: 800
VWidth: 0
LayerCount: 2
Fore
SplineSet
200 700 m 1,0,-1
 500 700 l 1,1,-1
 500 600 l 1,2,-1
 200 600 l 5,3,-1
 200 700 l 1,0,-1
100 600 m 1,4,-1
 300 600 l 1,5,-1
 300 500 l 1,6,-1
 100 500 l 1,7,-1
 100 600 l 1,4,-1
200 400 m 1,8,-1
 500 400 l 1,9,-1
 500 300 l 1,10,-1
 200 300 l 1,11,-1
 200 400 l 1,8,-1
481 252 m 1025,12,-1
400 300 m 1,13,-1
 600 300 l 1,14,-1
 600 100 l 1,15,-1
 400 100 l 1,16,-1
 400 300 l 1,13,-1
0 500 m 1,17,-1
 200 500 l 1,18,-1
 200 100 l 1,19,-1
 0 100 l 1,20,-1
 0 500 l 1,17,-1
100 100 m 1,21,-1
 500 100 l 1,22,-1
 500 0 l 1,23,-1
 100 0 l 1,24,-1
 100 100 l 1,21,-1
EndSplineSet
EndChar

StartChar: seven
Encoding: 55 55 11
Width: 800
VWidth: 0
LayerCount: 2
Fore
SplineSet
200 300 m 1,0,-1
 400 300 l 1,1,-1
 400 0 l 1,2,-1
 200 0 l 5,3,-1
 200 300 l 1,0,-1
300 400 m 1,4,-1
 500 400 l 1,5,-1
 500 300 l 1,6,-1
 300 300 l 1,7,-1
 300 400 l 1,4,-1
400 600 m 1,8,-1
 600 600 l 1,9,-1
 600 400 l 1,10,-1
 400 400 l 1,11,-1
 400 600 l 1,8,-1
200 700 m 1,12,-1
 600 700 l 1,13,-1
 600 600 l 1,14,-1
 200 600 l 1,15,-1
 200 700 l 1,12,-1
0 700 m 1,16,-1
 200 700 l 1,17,-1
 200 500 l 1,18,-1
 0 500 l 1,19,-1
 0 700 l 1,16,-1
EndSplineSet
EndChar

StartChar: eight
Encoding: 56 56 12
Width: 800
VWidth: 0
LayerCount: 2
Fore
SplineSet
100 700 m 1,0,-1
 500 700 l 1,1,-1
 500 600 l 5,2,-1
 100 600 l 1,3,-1
 100 700 l 1,0,-1
100 400 m 1,4,-1
 500 400 l 1,5,-1
 500 300 l 1,6,-1
 100 300 l 1,7,-1
 100 400 l 1,4,-1
400 600 m 1,8,-1
 600 600 l 1,9,-1
 600 400 l 1,10,-1
 400 400 l 1,11,-1
 400 600 l 1,8,-1
0 600 m 1,12,-1
 200 600 l 1,13,-1
 200 400 l 1,14,-1
 0 400 l 1,15,-1
 0 600 l 1,12,-1
100 100 m 1,16,-1
 500 100 l 1,17,-1
 500 0 l 1,18,-1
 100 0 l 1,19,-1
 100 100 l 1,16,-1
400 300 m 1,20,-1
 600 300 l 1,21,-1
 600 100 l 1,22,-1
 400 100 l 1,23,-1
 400 300 l 1,20,-1
0 300 m 1,24,-1
 200 300 l 1,25,-1
 200 100 l 1,26,-1
 0 100 l 1,27,-1
 0 300 l 1,24,-1
EndSplineSet
EndChar

StartChar: nine
Encoding: 57 57 13
Width: 800
VWidth: 0
LayerCount: 2
Fore
SplineSet
100 400 m 1,0,-1
 400 400 l 1,1,-1
 400 300 l 5,2,-1
 100 300 l 1,3,-1
 100 400 l 1,0,-1
0 600 m 1,4,-1
 200 600 l 1,5,-1
 200 400 l 1,6,-1
 0 400 l 1,7,-1
 0 600 l 1,4,-1
100 700 m 1,8,-1
 500 700 l 1,9,-1
 500 600 l 1,10,-1
 100 600 l 1,11,-1
 100 700 l 1,8,-1
400 600 m 1,12,-1
 600 600 l 1,13,-1
 600 200 l 1,14,-1
 400 200 l 1,15,-1
 400 600 l 1,12,-1
300 200 m 1,16,-1
 500 200 l 1,17,-1
 500 100 l 1,18,-1
 300 100 l 1,19,-1
 300 200 l 1,16,-1
100 100 m 1,20,-1
 400 100 l 1,21,-1
 400 0 l 1,22,-1
 100 0 l 1,23,-1
 100 100 l 1,20,-1
EndSplineSet
EndChar

StartChar: a
Encoding: 97 97 14
Width: 800
VWidth: 0
Flags: W
LayerCount: 2
Fore
SplineSet
100 500 m 5,0,-1
 500 500 l 5,1,-1
 500 400 l 1,2,-1
 100 400 l 1,3,-1
 100 500 l 5,0,-1
100 300 m 1,4,-1
 400 300 l 1,5,-1
 400 200 l 1,6,-1
 100 200 l 1,7,-1
 100 300 l 1,4,-1
400 400 m 1,8,-1
 600 400 l 1,9,-1
 600 100 l 1,10,-1
 400 100 l 1,11,-1
 400 400 l 1,8,-1
500 100 m 1,12,-1
 700 100 l 1,13,-1
 700 0 l 1,14,-1
 500 0 l 1,15,-1
 500 100 l 1,12,-1
100 100 m 1,16,-1
 400 100 l 1,17,-1
 400 0 l 1,18,-1
 100 0 l 1,19,-1
 100 100 l 1,16,-1
221 92 m 1025,20,-1
221 92 m 1025,21,-1
11 104 m 1025,22,-1
0 100 m 1025,23,-1
0 200 m 1,24,-1
 200 200 l 1,25,-1
 200 100 l 1,26,-1
 0 100 l 1,27,-1
 0 200 l 1,24,-1
EndSplineSet
EndChar

StartChar: b
Encoding: 98 98 15
Width: 800
VWidth: 0
Flags: W
LayerCount: 2
Fore
SplineSet
0 700 m 1,0,-1
 100 700 l 1,1,-1
 100 600 l 1,2,-1
 0 600 l 1,3,-1
 0 700 l 1,0,-1
500 300 m 1,4,-1
 700 300 l 1,5,-1
 700 100 l 1,6,-1
 500 100 l 1,7,-1
 500 300 l 1,4,-1
300 400 m 1,8,-1
 600 400 l 1,9,-1
 600 300 l 1,10,-1
 300 300 l 1,11,-1
 300 400 l 1,8,-1
100 700 m 1,12,-1
 300 700 l 1,13,-1
 300 100 l 1,14,-1
 100 100 l 1,15,-1
 100 700 l 1,12,-1
300 100 m 1,16,-1
 600 100 l 1,17,-1
 600 0 l 1,18,-1
 300 0 l 1,19,-1
 300 100 l 1,16,-1
0 100 m 1,20,-1
 200 100 l 1,21,-1
 200 0 l 1,22,-1
 0 0 l 1,23,-1
 0 100 l 1,20,-1
EndSplineSet
EndChar

StartChar: c
Encoding: 99 99 16
Width: 800
VWidth: 0
LayerCount: 2
Fore
SplineSet
400 400 m 1,0,-1
 600 400 l 1,1,-1
 600 300 l 5,2,-1
 400 300 l 1,3,-1
 400 400 l 1,0,-1
400 200 m 1,4,-1
 600 200 l 1,5,-1
 600 100 l 1,6,-1
 400 100 l 1,7,-1
 400 200 l 1,4,-1
100 500 m 1,8,-1
 500 500 l 1,9,-1
 500 400 l 1,10,-1
 100 400 l 1,11,-1
 100 500 l 1,8,-1
100 100 m 1,12,-1
 500 100 l 1,13,-1
 500 0 l 1,14,-1
 100 0 l 1,15,-1
 100 100 l 1,12,-1
0 400 m 1,16,-1
 200 400 l 1,17,-1
 200 100 l 1,18,-1
 0 100 l 1,19,-1
 0 400 l 1,16,-1
EndSplineSet
EndChar

StartChar: d
Encoding: 100 100 17
Width: 800
VWidth: 0
LayerCount: 2
Fore
SplineSet
300 700 m 1,0,-1
 400 700 l 1,1,-1
 400 600 l 1,2,-1
 300 600 l 1,3,-1
 300 700 l 1,0,-1
100 400 m 1,4,-1
 400 400 l 1,5,-1
 400 300 l 1,6,-1
 100 300 l 1,7,-1
 100 400 l 1,4,-1
500 100 m 1,8,-1
 700 100 l 1,9,-1
 700 0 l 1,10,-1
 500 0 l 1,11,-1
 500 100 l 1,8,-1
400 700 m 1,12,-1
 600 700 l 1,13,-1
 600 100 l 1,14,-1
 400 100 l 1,15,-1
 400 700 l 1,12,-1
100 100 m 1,16,-1
 400 100 l 1,17,-1
 400 0 l 1,18,-1
 100 0 l 1,19,-1
 100 100 l 1,16,-1
0 300 m 1,20,-1
 200 300 l 1,21,-1
 200 100 l 1,22,-1
 0 100 l 1,23,-1
 0 300 l 1,20,-1
EndSplineSet
EndChar

StartChar: e
Encoding: 101 101 18
Width: 800
VWidth: 0
LayerCount: 2
Fore
SplineSet
100 500 m 1,0,-1
 500 500 l 1,1,-1
 500 400 l 1,2,-1
 100 400 l 1,3,-1
 100 500 l 1,0,-1
400 400 m 1,4,-1
 600 400 l 1,5,-1
 600 300 l 1,6,-1
 400 300 l 1,7,-1
 400 400 l 1,4,-1
200 300 m 1,8,-1
 600 300 l 1,9,-1
 600 200 l 1,10,-1
 200 200 l 1,11,-1
 200 300 l 1,8,-1
100 100 m 1,12,-1
 500 100 l 1,13,-1
 500 0 l 1,14,-1
 100 0 l 1,15,-1
 100 100 l 1,12,-1
0 400 m 1,16,-1
 200 400 l 1,17,-1
 200 100 l 1,18,-1
 0 100 l 1,19,-1
 0 400 l 1,16,-1
EndSplineSet
EndChar

StartChar: f
Encoding: 102 102 19
Width: 800
VWidth: 0
LayerCount: 2
Fore
SplineSet
400 600 m 1,0,-1
 600 600 l 1,1,-1
 600 500 l 5,2,-1
 400 500 l 1,3,-1
 400 600 l 1,0,-1
200 700 m 1,4,-1
 500 700 l 1,5,-1
 500 600 l 1,6,-1
 200 600 l 1,7,-1
 200 700 l 1,4,-1
300 400 m 1,8,-1
 400 400 l 1,9,-1
 400 300 l 1,10,-1
 300 300 l 1,11,-1
 300 400 l 1,8,-1
0 400 m 1,12,-1
 100 400 l 1,13,-1
 100 300 l 1,14,-1
 0 300 l 1,15,-1
 0 400 l 1,12,-1
100 600 m 1,16,-1
 300 600 l 1,17,-1
 300 100 l 1,18,-1
 100 100 l 1,19,-1
 100 600 l 1,16,-1
0 100 m 1,20,-1
 400 100 l 1,21,-1
 400 0 l 1,22,-1
 0 0 l 1,23,-1
 0 100 l 1,20,-1
EndSplineSet
EndChar

StartChar: g
Encoding: 103 103 20
Width: 801
VWidth: 0
Flags: W
LayerCount: 2
Fore
SplineSet
500 500 m 5,0,-1
 700 500 l 5,1,-1
 700 400 l 5,2,-1
 500 400 l 5,3,-1
 500 500 l 5,0,-1
102 500 m 5,4,-1
 400 500 l 5,5,-1
 400 400 l 5,6,-1
 100 400 l 5,7,-1
 102 500 l 5,4,-1
0 400 m 5,8,-1
 200 400 l 5,9,-1
 200 200 l 5,10,-1
 0 200 l 5,11,-1
 0 400 l 5,8,-1
138 108 m 1029,12,-1
100 200 m 5,13,-1
 400 200 l 5,14,-1
 400 100 l 5,15,-1
 100 100 l 5,16,-1
 100 200 l 5,13,-1
400 400 m 5,17,-1
 600 400 l 5,18,-1
 600 0 l 5,19,-1
 400 0 l 5,20,-1
 400 400 l 5,17,-1
1 0 m 5,21,-1
 500 0 l 5,22,-1
 500 -100 l 5,23,-1
 1 -100 l 5,24,-1
 1 0 l 5,21,-1
EndSplineSet
EndChar

StartChar: h
Encoding: 104 104 21
Width: 800
VWidth: 0
LayerCount: 2
Fore
SplineSet
400 500 m 1,0,-1
 600 500 l 1,1,-1
 600 400 l 5,2,-1
 400 400 l 1,3,-1
 400 500 l 1,0,-1
300 400 m 1,4,-1
 400 400 l 1,5,-1
 400 300 l 1,6,-1
 300 300 l 1,7,-1
 300 400 l 1,4,-1
500 400 m 1,8,-1
 700 400 l 1,9,-1
 700 0 l 1,10,-1
 500 0 l 1,11,-1
 500 400 l 1,8,-1
0 700 m 1,12,-1
 100 700 l 1,13,-1
 100 600 l 1,14,-1
 0 600 l 1,15,-1
 0 700 l 1,12,-1
100 700 m 1,16,-1
 300 700 l 1,17,-1
 300 100 l 1,18,-1
 100 100 l 1,19,-1
 100 700 l 1,16,-1
0 100 m 1,20,-1
 300 100 l 1,21,-1
 300 0 l 1,22,-1
 0 0 l 1,23,-1
 0 100 l 1,20,-1
115 276 m 1025,24,-1
EndSplineSet
EndChar

StartChar: i
Encoding: 105 105 22
Width: 600
VWidth: 0
Flags: W
LayerCount: 2
Fore
SplineSet
0 500 m 1,0,-1
 100 500 l 1,1,-1
 100 400 l 1,2,-1
 0 400 l 1,3,-1
 0 500 l 1,0,-1
100 700 m 1,4,-1
 300 700 l 1,5,-1
 300 600 l 1,6,-1
 100 600 l 1,7,-1
 100 700 l 1,4,-1
100 500 m 1,8,-1
 300 500 l 1,9,-1
 300 100 l 1,10,-1
 100 100 l 1,11,-1
 100 500 l 1,8,-1
0 100 m 1,12,-1
 400 100 l 1,13,-1
 400 0 l 1,14,-1
 0 0 l 1,15,-1
 0 100 l 1,12,-1
EndSplineSet
EndChar

StartChar: j
Encoding: 106 106 23
Width: 800
VWidth: 0
LayerCount: 2
Fore
SplineSet
120 476 m 1025,0,-1
120 476 m 1025,1,-1
152 478 m 1025,2,-1
158 490 m 1025,3,-1
400 700 m 1,4,-1
 600 700 l 1,5,-1
 600 600 l 1,6,-1
 400 600 l 5,7,-1
 400 700 l 1,4,-1
288 570 m 1025,8,-1
400 500 m 1,9,-1
 600 500 l 1,10,-1
 600 0 l 1,11,-1
 400 0 l 1,12,-1
 400 500 l 1,9,-1
100 0 m 1,13,-1
 500 0 l 1,14,-1
 500 -100 l 1,15,-1
 100 -100 l 1,16,-1
 100 0 l 1,13,-1
0 200 m 1,17,-1
 200 200 l 1,18,-1
 200 0 l 1,19,-1
 0 0 l 1,20,-1
 0 200 l 1,17,-1
EndSplineSet
EndChar

StartChar: k
Encoding: 107 107 24
Width: 800
VWidth: 0
LayerCount: 2
Fore
SplineSet
500 500 m 1,0,-1
 700 500 l 1,1,-1
 700 400 l 5,2,-1
 500 400 l 1,3,-1
 500 500 l 1,0,-1
400 400 m 1,4,-1
 600 400 l 1,5,-1
 600 300 l 1,6,-1
 400 300 l 1,7,-1
 400 400 l 1,4,-1
500 100 m 1,8,-1
 700 100 l 1,9,-1
 700 0 l 1,10,-1
 500 0 l 1,11,-1
 500 100 l 1,8,-1
563 402 m 1025,12,-1
400 200 m 1,13,-1
 600 200 l 1,14,-1
 600 100 l 1,15,-1
 400 100 l 1,16,-1
 400 200 l 1,13,-1
300 300 m 1,17,-1
 500 300 l 1,18,-1
 500 200 l 1,19,-1
 300 200 l 1,20,-1
 300 300 l 1,17,-1
0 700 m 1,21,-1
 100 700 l 1,22,-1
 100 600 l 1,23,-1
 0 600 l 1,24,-1
 0 700 l 1,21,-1
100 700 m 1,25,-1
 300 700 l 1,26,-1
 300 100 l 1,27,-1
 100 100 l 1,28,-1
 100 700 l 1,25,-1
0 100 m 1,29,-1
 300 100 l 1,30,-1
 300 0 l 1,31,-1
 0 0 l 1,32,-1
 0 100 l 1,29,-1
EndSplineSet
EndChar

StartChar: l
Encoding: 108 108 25
Width: 800
VWidth: 0
LayerCount: 2
Fore
SplineSet
0 700 m 1,0,-1
 100 700 l 1,1,-1
 100 600 l 5,2,-1
 0 600 l 1,3,-1
 0 700 l 1,0,-1
100 700 m 1,4,-1
 300 700 l 1,5,-1
 300 100 l 1,6,-1
 100 100 l 1,7,-1
 100 700 l 1,4,-1
0 100 m 1,8,-1
 400 100 l 1,9,-1
 400 0 l 1,10,-1
 0 0 l 1,11,-1
 0 100 l 1,8,-1
EndSplineSet
EndChar

StartChar: m
Encoding: 109 109 26
Width: 800
VWidth: 0
LayerCount: 2
Fore
SplineSet
400 500 m 1,0,-1
 600 500 l 1,1,-1
 600 400 l 5,2,-1
 400 400 l 1,3,-1
 400 500 l 1,0,-1
300 200 m 1,4,-1
 400 200 l 1,5,-1
 400 100 l 1,6,-1
 300 100 l 1,7,-1
 300 200 l 1,4,-1
500 200 m 1,8,-1
 700 200 l 1,9,-1
 700 0 l 1,10,-1
 500 0 l 1,11,-1
 500 200 l 1,8,-1
200 400 m 1,12,-1
 700 400 l 1,13,-1
 700 200 l 1,14,-1
 200 200 l 1,15,-1
 200 400 l 1,12,-1
0 500 m 1,16,-1
 200 500 l 1,17,-1
 200 0 l 1,18,-1
 0 0 l 1,19,-1
 0 500 l 1,16,-1
EndSplineSet
EndChar

StartChar: n
Encoding: 110 110 27
Width: 800
VWidth: 0
LayerCount: 2
Fore
SplineSet
400 400 m 1,0,-1
 600 400 l 1,1,-1
 600 0 l 5,2,-1
 400 0 l 1,3,-1
 400 400 l 1,0,-1
287 372 m 1025,4,-1
1407 454 m 1025,5,-1
200 500 m 1,6,-1
 500 500 l 1,7,-1
 500 400 l 1,8,-1
 200 400 l 1,9,-1
 200 500 l 1,6,-1
0 500 m 1,10,-1
 200 500 l 1,11,-1
 200 0 l 1,12,-1
 0 0 l 1,13,-1
 0 500 l 1,10,-1
EndSplineSet
EndChar

StartChar: o
Encoding: 111 111 28
Width: 800
VWidth: 0
LayerCount: 2
Fore
SplineSet
600 100 m 1,0,-1
 400 100 l 1,1,-1
 400 400 l 1,2,-1
 600 400 l 1,3,-1
 600 100 l 1,0,-1
500 400 m 1,4,-1
 100 400 l 1,5,-1
 100 500 l 1,6,-1
 500 500 l 1,7,-1
 500 400 l 1,4,-1
0 400 m 1,8,-1
 200 400 l 1,9,-1
 200 100 l 1,10,-1
 0 100 l 1,11,-1
 0 400 l 1,8,-1
100 100 m 1,12,-1
 500 100 l 1,13,-1
 500 0 l 1,14,-1
 100 0 l 1,15,-1
 100 100 l 1,12,-1
EndSplineSet
EndChar

StartChar: p
Encoding: 112 112 29
Width: 800
VWidth: 0
LayerCount: 2
Fore
SplineSet
300 200 m 5,0,-1
 600 200 l 5,1,-1
 600 100 l 5,2,-1
 300 100 l 5,3,-1
 300 200 l 5,0,-1
500 400 m 5,4,-1
 700 400 l 5,5,-1
 700 200 l 5,6,-1
 500 200 l 5,7,-1
 500 400 l 5,4,-1
300 500 m 5,8,-1
 600 500 l 5,9,-1
 600 400 l 5,10,-1
 300 400 l 5,11,-1
 300 500 l 5,8,-1
0 500 m 5,12,-1
 200 500 l 5,13,-1
 200 400 l 5,14,-1
 0 400 l 5,15,-1
 0 500 l 5,12,-1
100 400 m 5,16,-1
 300 400 l 5,17,-1
 300 0 l 5,18,-1
 100 0 l 5,19,-1
 100 400 l 5,16,-1
0 0 m 5,20,-1
 400 0 l 5,21,-1
 400 -100 l 5,22,-1
 0 -100 l 5,23,-1
 0 0 l 5,20,-1
EndSplineSet
EndChar

StartChar: q
Encoding: 113 113 30
Width: 800
VWidth: 0
Flags: W
LayerCount: 2
Fore
SplineSet
400 200 m 1,0,-1
 100 200 l 1,1,-1
 100 100 l 1,2,-1
 400 100 l 1,3,-1
 400 200 l 1,0,-1
200 400 m 1,4,-1
 0 400 l 1,5,-1
 0 200 l 5,6,-1
 200 200 l 5,7,-1
 200 400 l 1,4,-1
400 500 m 1,8,-1
 100 500 l 1,9,-1
 100 400 l 1,10,-1
 400 400 l 1,11,-1
 400 500 l 1,8,-1
700 500 m 1,12,-1
 500 500 l 1,13,-1
 500 400 l 1,14,-1
 700 400 l 1,15,-1
 700 500 l 1,12,-1
600 400 m 1,16,-1
 400 400 l 1,17,-1
 400 0 l 1,18,-1
 600 0 l 1,19,-1
 600 400 l 1,16,-1
700 0 m 1,20,-1
 300 0 l 1,21,-1
 300 -100 l 1,22,-1
 700 -100 l 1,23,-1
 700 0 l 1,20,-1
EndSplineSet
EndChar

StartChar: r
Encoding: 114 114 31
Width: 800
VWidth: 0
LayerCount: 2
Fore
SplineSet
500 400 m 1,0,-1
 700 400 l 1,1,-1
 700 200 l 5,2,-1
 500 200 l 1,3,-1
 500 400 l 1,0,-1
400 500 m 1,4,-1
 600 500 l 1,5,-1
 600 400 l 1,6,-1
 400 400 l 1,7,-1
 400 500 l 1,4,-1
300 500 m 1,8,-1
 400 500 l 1,9,-1
 400 300 l 1,10,-1
 300 300 l 1,11,-1
 300 500 l 1,8,-1
0 500 m 1,12,-1
 200 500 l 1,13,-1
 200 400 l 1,14,-1
 0 400 l 1,15,-1
 0 500 l 1,12,-1
100 400 m 1,16,-1
 300 400 l 1,17,-1
 300 100 l 1,18,-1
 100 100 l 1,19,-1
 100 400 l 1,16,-1
0 100 m 1,20,-1
 400 100 l 1,21,-1
 400 0 l 1,22,-1
 0 0 l 1,23,-1
 0 100 l 1,20,-1
EndSplineSet
EndChar

StartChar: s
Encoding: 115 115 32
Width: 800
VWidth: 0
LayerCount: 2
Fore
SplineSet
100 500 m 1,0,-1
 600 500 l 1,1,-1
 600 400 l 1,2,-1
 100 400 l 5,3,-1
 100 500 l 1,0,-1
0 400 m 1,4,-1
 200 400 l 1,5,-1
 200 300 l 1,6,-1
 0 300 l 1,7,-1
 0 400 l 1,4,-1
100 300 m 1,8,-1
 500 300 l 1,9,-1
 500 200 l 1,10,-1
 100 200 l 1,11,-1
 100 300 l 1,8,-1
400 200 m 1,12,-1
 600 200 l 1,13,-1
 600 100 l 1,14,-1
 400 100 l 1,15,-1
 400 200 l 1,12,-1
0 100 m 1,16,-1
 500 100 l 1,17,-1
 500 0 l 1,18,-1
 0 0 l 1,19,-1
 0 100 l 1,16,-1
EndSplineSet
EndChar

StartChar: t
Encoding: 116 116 33
Width: 800
VWidth: 0
LayerCount: 2
Fore
SplineSet
400 200 m 1,0,-1
 500 200 l 1,1,-1
 500 100 l 5,2,-1
 400 100 l 1,3,-1
 400 200 l 1,0,-1
200 100 m 1,4,-1
 400 100 l 1,5,-1
 400 0 l 1,6,-1
 200 0 l 1,7,-1
 200 100 l 1,4,-1
300 500 m 1,8,-1
 500 500 l 1,9,-1
 500 400 l 1,10,-1
 300 400 l 1,11,-1
 300 500 l 1,8,-1
0 500 m 1,12,-1
 100 500 l 1,13,-1
 100 400 l 1,14,-1
 0 400 l 1,15,-1
 0 500 l 1,12,-1
200 700 m 1,16,-1
 300 700 l 1,17,-1
 300 600 l 1,18,-1
 200 600 l 1,19,-1
 200 700 l 1,16,-1
100 600 m 1,20,-1
 300 600 l 1,21,-1
 300 100 l 1,22,-1
 100 100 l 1,23,-1
 100 600 l 1,20,-1
EndSplineSet
EndChar

StartChar: u
Encoding: 117 117 34
Width: 800
VWidth: 0
LayerCount: 2
Fore
SplineSet
500 100 m 1,0,-1
 700 100 l 1,1,-1
 700 0 l 5,2,-1
 500 0 l 1,3,-1
 500 100 l 1,0,-1
400 500 m 1,4,-1
 600 500 l 1,5,-1
 600 100 l 1,6,-1
 400 100 l 1,7,-1
 400 500 l 1,4,-1
0 500 m 1,8,-1
 200 500 l 1,9,-1
 200 100 l 1,10,-1
 0 100 l 1,11,-1
 0 500 l 1,8,-1
100 100 m 1,12,-1
 400 100 l 1,13,-1
 400 0 l 1,14,-1
 100 0 l 1,15,-1
 100 100 l 1,12,-1
EndSplineSet
EndChar

StartChar: v
Encoding: 118 118 35
Width: 800
VWidth: 0
LayerCount: 2
Fore
SplineSet
400 500 m 1,0,-1
 600 500 l 1,1,-1
 600 200 l 5,2,-1
 400 200 l 1,3,-1
 400 500 l 1,0,-1
0 500 m 1,4,-1
 200 500 l 1,5,-1
 200 200 l 1,6,-1
 0 200 l 1,7,-1
 0 500 l 1,4,-1
100 200 m 1,8,-1
 500 200 l 1,9,-1
 500 100 l 1,10,-1
 100 100 l 1,11,-1
 100 200 l 1,8,-1
200 100 m 1,12,-1
 400 100 l 1,13,-1
 400 0 l 1,14,-1
 200 0 l 1,15,-1
 200 100 l 1,12,-1
EndSplineSet
EndChar

StartChar: w
Encoding: 119 119 36
Width: 800
VWidth: 0
LayerCount: 2
Fore
SplineSet
300 400 m 1,0,-1
 400 400 l 1,1,-1
 400 100 l 5,2,-1
 300 100 l 1,3,-1
 300 400 l 1,0,-1
500 301 m 1,4,-1
 400 301 l 1,5,-1
 400 101 l 1,6,-1
 500 101 l 1,7,-1
 500 301 l 1,4,-1
600 101 m 1,8,-1
 400 101 l 1,9,-1
 400 0 l 1,10,-1
 600 0 l 1,11,-1
 600 101 l 1,8,-1
700 501 m 1,12,-1
 500 501 l 1,13,-1
 500 101 l 1,14,-1
 700 101 l 1,15,-1
 700 501 l 1,12,-1
200 300 m 1,16,-1
 300 300 l 1,17,-1
 300 100 l 1,18,-1
 200 100 l 1,19,-1
 200 300 l 1,16,-1
100 100 m 1,20,-1
 300 100 l 1,21,-1
 300 0 l 1,22,-1
 100 0 l 1,23,-1
 100 100 l 1,20,-1
0 500 m 1,24,-1
 200 500 l 1,25,-1
 200 100 l 1,26,-1
 0 100 l 1,27,-1
 0 500 l 1,24,-1
EndSplineSet
EndChar

StartChar: x
Encoding: 120 120 37
Width: 800
VWidth: 0
LayerCount: 2
Fore
SplineSet
200 300 m 1,0,-1
 500 300 l 1,1,-1
 500 200 l 5,2,-1
 200 200 l 1,3,-1
 200 300 l 1,0,-1
400 300 m 1,4,-1
 600 300 l 1,5,-1
 600 400 l 1,6,-1
 400 400 l 1,7,-1
 400 300 l 1,4,-1
100 300 m 1,8,-1
 300 300 l 1,9,-1
 300 400 l 1,10,-1
 100 400 l 1,11,-1
 100 300 l 1,8,-1
500 400 m 1,12,-1
 700 400 l 1,13,-1
 700 500 l 1,14,-1
 500 500 l 1,15,-1
 500 400 l 1,12,-1
0 400 m 1,16,-1
 200 400 l 1,17,-1
 200 500 l 1,18,-1
 0 500 l 1,19,-1
 0 400 l 1,16,-1
400 200 m 1,20,-1
 600 200 l 1,21,-1
 600 100 l 1,22,-1
 400 100 l 1,23,-1
 400 200 l 1,20,-1
100 200 m 1,24,-1
 300 200 l 1,25,-1
 300 100 l 1,26,-1
 100 100 l 1,27,-1
 100 200 l 1,24,-1
500 100 m 1,28,-1
 700 100 l 1,29,-1
 700 0 l 1,30,-1
 500 0 l 1,31,-1
 500 100 l 1,28,-1
0 100 m 1,32,-1
 200 100 l 1,33,-1
 200 0 l 1,34,-1
 0 0 l 1,35,-1
 0 100 l 1,32,-1
EndSplineSet
EndChar

StartChar: y
Encoding: 121 121 38
Width: 800
VWidth: 0
LayerCount: 2
Fore
SplineSet
0 500 m 1,0,-1
 200 500 l 1,1,-1
 200 200 l 5,2,-1
 0 200 l 1,3,-1
 0 500 l 1,0,-1
100 200 m 1,4,-1
 400 200 l 1,5,-1
 400 100 l 1,6,-1
 100 100 l 1,7,-1
 100 200 l 1,4,-1
400 500 m 1,8,-1
 600 500 l 1,9,-1
 600 0 l 1,10,-1
 400 0 l 1,11,-1
 400 500 l 1,8,-1
0 0 m 1,12,-1
 500 0 l 1,13,-1
 500 -100 l 1,14,-1
 0 -100 l 1,15,-1
 0 0 l 1,12,-1
EndSplineSet
EndChar

StartChar: z
Encoding: 122 122 39
Width: 800
VWidth: 0
LayerCount: 2
Fore
SplineSet
200 300 m 1,0,-1
 400 300 l 1,1,-1
 400 200 l 5,2,-1
 200 200 l 1,3,-1
 200 300 l 1,0,-1
100 300 m 1,4,-1
 0 300 l 1,5,-1
 0 400 l 1,6,-1
 100 400 l 1,7,-1
 100 300 l 1,4,-1
500 300 m 1,8,-1
 300 300 l 1,9,-1
 300 400 l 1,10,-1
 500 400 l 1,11,-1
 500 300 l 1,8,-1
600 400 m 1,12,-1
 0 400 l 1,13,-1
 0 500 l 1,14,-1
 600 500 l 1,15,-1
 600 400 l 1,12,-1
500 200 m 1,16,-1
 600 200 l 1,17,-1
 600 100 l 1,18,-1
 500 100 l 1,19,-1
 500 200 l 1,16,-1
100 200 m 1,20,-1
 300 200 l 1,21,-1
 300 100 l 1,22,-1
 100 100 l 1,23,-1
 100 200 l 1,20,-1
0 100 m 1,24,-1
 600 100 l 1,25,-1
 600 0 l 1,26,-1
 0 0 l 1,27,-1
 0 100 l 1,24,-1
EndSplineSet
EndChar

StartChar: A
Encoding: 65 65 40
Width: 800
VWidth: 0
LayerCount: 2
Fore
SplineSet
200 700 m 1,0,-1
 400 700 l 1,1,-1
 400 600 l 5,2,-1
 200 600 l 1,3,-1
 200 700 l 1,0,-1
100 600 m 1,4,-1
 500 600 l 1,5,-1
 500 500 l 1,6,-1
 100 500 l 1,7,-1
 100 600 l 1,4,-1
200 300 m 1,8,-1
 400 300 l 1,9,-1
 400 200 l 1,10,-1
 200 200 l 1,11,-1
 200 300 l 1,8,-1
400 500 m 1,12,-1
 600 500 l 1,13,-1
 600 0 l 1,14,-1
 400 0 l 1,15,-1
 400 500 l 1,12,-1
0 500 m 1,16,-1
 200 500 l 1,17,-1
 200 0 l 1,18,-1
 0 0 l 1,19,-1
 0 500 l 1,16,-1
EndSplineSet
EndChar

StartChar: B
Encoding: 66 66 41
Width: 800
VWidth: 0
LayerCount: 2
Fore
SplineSet
100 400 m 1,0,-1
 600 400 l 1,1,-1
 600 300 l 1,2,-1
 100 300 l 1,3,-1
 100 400 l 1,0,-1
500 400 m 1,4,-1
 700 400 l 1,5,-1
 700 600 l 1,6,-1
 500 600 l 1,7,-1
 500 400 l 1,4,-1
100 400 m 1,8,-1
 300 400 l 1,9,-1
 300 600 l 1,10,-1
 100 600 l 1,11,-1
 100 400 l 1,8,-1
0 600 m 1,12,-1
 600 600 l 1,13,-1
 600 700 l 1,14,-1
 0 700 l 1,15,-1
 0 600 l 1,12,-1
500 300 m 1,16,-1
 700 300 l 1,17,-1
 700 100 l 1,18,-1
 500 100 l 1,19,-1
 500 300 l 1,16,-1
100 300 m 1,20,-1
 300 300 l 1,21,-1
 300 100 l 1,22,-1
 100 100 l 1,23,-1
 100 300 l 1,20,-1
0 100 m 1,24,-1
 600 100 l 1,25,-1
 600 0 l 1,26,-1
 0 0 l 1,27,-1
 0 100 l 1,24,-1
EndSplineSet
EndChar

StartChar: C
Encoding: 67 67 42
Width: 800
VWidth: 0
LayerCount: 2
Fore
SplineSet
200 700 m 5,0,-1
 600 700 l 5,1,-1
 600 600 l 5,2,-1
 200 600 l 5,3,-1
 200 700 l 5,0,-1
500 600 m 5,4,-1
 700 600 l 5,5,-1
 700 500 l 5,6,-1
 500 500 l 5,7,-1
 500 600 l 5,4,-1
100 600 m 5,8,-1
 300 600 l 5,9,-1
 300 500 l 5,10,-1
 100 500 l 5,11,-1
 100 600 l 5,8,-1
0 500 m 5,12,-1
 200 500 l 5,13,-1
 200 200 l 5,14,-1
 0 200 l 5,15,-1
 0 500 l 5,12,-1
500 200 m 5,16,-1
 700 200 l 5,17,-1
 700 100 l 5,18,-1
 500 100 l 5,19,-1
 500 200 l 5,16,-1
100 200 m 5,20,-1
 300 200 l 5,21,-1
 300 100 l 5,22,-1
 100 100 l 5,23,-1
 100 200 l 5,20,-1
200 100 m 5,24,-1
 600 100 l 5,25,-1
 600 0 l 5,26,-1
 200 0 l 5,27,-1
 200 100 l 5,24,-1
EndSplineSet
EndChar

StartChar: D
Encoding: 68 68 43
Width: 800
VWidth: 0
LayerCount: 2
Fore
SplineSet
100 600 m 1,0,-1
 300 600 l 1,1,-1
 300 100 l 5,2,-1
 100 100 l 1,3,-1
 100 600 l 1,0,-1
500 500 m 1,4,-1
 700 500 l 1,5,-1
 700 200 l 1,6,-1
 500 200 l 1,7,-1
 500 500 l 1,4,-1
400 500 m 1,8,-1
 600 500 l 1,9,-1
 600 600 l 1,10,-1
 400 600 l 1,11,-1
 400 500 l 1,8,-1
0 600 m 1,12,-1
 500 600 l 1,13,-1
 500 700 l 1,14,-1
 0 700 l 1,15,-1
 0 600 l 1,12,-1
400 200 m 1,16,-1
 600 200 l 1,17,-1
 600 100 l 1,18,-1
 400 100 l 1,19,-1
 400 200 l 1,16,-1
0 100 m 1,20,-1
 500 100 l 1,21,-1
 500 0 l 1,22,-1
 0 0 l 1,23,-1
 0 100 l 1,20,-1
EndSplineSet
EndChar

StartChar: E
Encoding: 69 69 44
Width: 800
VWidth: 0
LayerCount: 2
Fore
SplineSet
400 500 m 1,0,-1
 500 500 l 1,1,-1
 500 200 l 5,2,-1
 400 200 l 1,3,-1
 400 500 l 1,0,-1
300 400 m 1,4,-1
 400 400 l 1,5,-1
 400 300 l 1,6,-1
 300 300 l 1,7,-1
 300 400 l 1,4,-1
100 600 m 1,8,-1
 300 600 l 1,9,-1
 300 100 l 1,10,-1
 100 100 l 1,11,-1
 100 600 l 1,8,-1
600 500 m 1,12,-1
 700 500 l 1,13,-1
 700 600 l 1,14,-1
 600 600 l 1,15,-1
 600 500 l 1,12,-1
0 600 m 1,16,-1
 700 600 l 1,17,-1
 700 700 l 1,18,-1
 0 700 l 1,19,-1
 0 600 l 1,16,-1
600 200 m 1,20,-1
 700 200 l 1,21,-1
 700 100 l 1,22,-1
 600 100 l 1,23,-1
 600 200 l 1,20,-1
0 100 m 1,24,-1
 700 100 l 1,25,-1
 700 0 l 1,26,-1
 0 0 l 1,27,-1
 0 100 l 1,24,-1
EndSplineSet
EndChar

StartChar: F
Encoding: 70 70 45
Width: 800
VWidth: 0
LayerCount: 2
Fore
SplineSet
600 600 m 1,0,-1
 700 600 l 1,1,-1
 700 500 l 5,2,-1
 600 500 l 1,3,-1
 600 600 l 1,0,-1
400 500 m 1,4,-1
 500 500 l 1,5,-1
 500 200 l 1,6,-1
 400 200 l 1,7,-1
 400 500 l 1,4,-1
300 400 m 1,8,-1
 400 400 l 1,9,-1
 400 300 l 1,10,-1
 300 300 l 1,11,-1
 300 400 l 1,8,-1
0 700 m 1,12,-1
 700 700 l 1,13,-1
 700 600 l 1,14,-1
 0 600 l 1,15,-1
 0 700 l 1,12,-1
100 600 m 1,16,-1
 300 600 l 1,17,-1
 300 100 l 1,18,-1
 100 100 l 1,19,-1
 100 600 l 1,16,-1
0 100 m 1,20,-1
 400 100 l 1,21,-1
 400 0 l 1,22,-1
 0 0 l 1,23,-1
 0 100 l 1,20,-1
EndSplineSet
EndChar

StartChar: G
Encoding: 71 71 46
Width: 800
VWidth: 0
Flags: W
LayerCount: 2
Fore
SplineSet
400 300 m 1,0,-1
 700 300 l 1,1,-1
 700 200 l 5,2,-1
 400 200 l 1,3,-1
 400 300 l 1,0,-1
200 700 m 1,4,-1
 600 700 l 1,5,-1
 600 600 l 1,6,-1
 200 600 l 1,7,-1
 200 700 l 1,4,-1
500 600 m 1,8,-1
 700 600 l 1,9,-1
 700 500 l 1,10,-1
 500 500 l 1,11,-1
 500 600 l 1,8,-1
100 600 m 1,12,-1
 300 600 l 1,13,-1
 300 500 l 1,14,-1
 100 500 l 1,15,-1
 100 600 l 1,12,-1
0 500 m 1,16,-1
 200 500 l 1,17,-1
 200 200 l 1,18,-1
 0 200 l 1,19,-1
 0 500 l 1,16,-1
500 200 m 1,20,-1
 700 200 l 1,21,-1
 700 100 l 1,22,-1
 500 100 l 1,23,-1
 500 200 l 1,20,-1
100 200 m 1,24,-1
 300 200 l 1,25,-1
 300 100 l 1,26,-1
 100 100 l 1,27,-1
 100 200 l 1,24,-1
200 100 m 1,28,-1
 700 100 l 1,29,-1
 700 0 l 1,30,-1
 200 0 l 1,31,-1
 200 100 l 1,28,-1
EndSplineSet
EndChar

StartChar: H
Encoding: 72 72 47
Width: 800
VWidth: 0
LayerCount: 2
Fore
SplineSet
400 700 m 1,0,-1
 600 700 l 1,1,-1
 600 0 l 5,2,-1
 400 0 l 1,3,-1
 400 700 l 1,0,-1
200 400 m 1,4,-1
 400 400 l 1,5,-1
 400 300 l 1,6,-1
 200 300 l 1,7,-1
 200 400 l 1,4,-1
0 700 m 1,8,-1
 200 700 l 1,9,-1
 200 0 l 1,10,-1
 0 0 l 1,11,-1
 0 700 l 1,8,-1
EndSplineSet
EndChar

StartChar: I
Encoding: 73 73 48
Width: 800
VWidth: 0
LayerCount: 2
Fore
SplineSet
100 700 m 1,0,-1
 500 700 l 1,1,-1
 500 600 l 5,2,-1
 100 600 l 1,3,-1
 100 700 l 1,0,-1
200 600 m 1,4,-1
 400 600 l 1,5,-1
 400 100 l 1,6,-1
 200 100 l 1,7,-1
 200 600 l 1,4,-1
100 100 m 1,8,-1
 500 100 l 1,9,-1
 500 0 l 1,10,-1
 100 0 l 1,11,-1
 100 100 l 1,8,-1
EndSplineSet
EndChar

StartChar: J
Encoding: 74 74 49
Width: 800
VWidth: 0
LayerCount: 2
Fore
SplineSet
300 700 m 1,0,-1
 700 700 l 1,1,-1
 700 600 l 5,2,-1
 300 600 l 1,3,-1
 300 700 l 1,0,-1
400 600 m 1,4,-1
 600 600 l 1,5,-1
 600 100 l 1,6,-1
 400 100 l 1,7,-1
 400 600 l 1,4,-1
100 100 m 1,8,-1
 500 100 l 1,9,-1
 500 0 l 1,10,-1
 100 0 l 1,11,-1
 100 100 l 1,8,-1
0 300 m 1,12,-1
 200 300 l 1,13,-1
 200 100 l 1,14,-1
 0 100 l 1,15,-1
 0 300 l 1,12,-1
EndSplineSet
EndChar

StartChar: K
Encoding: 75 75 50
Width: 800
VWidth: 0
LayerCount: 2
Fore
SplineSet
300 400 m 1,0,-1
 500 400 l 1,1,-1
 500 300 l 5,2,-1
 300 300 l 1,3,-1
 300 400 l 1,0,-1
400 400 m 1,4,-1
 600 400 l 1,5,-1
 600 500 l 1,6,-1
 400 500 l 1,7,-1
 400 400 l 1,4,-1
500 500 m 1,8,-1
 700 500 l 1,9,-1
 700 700 l 1,10,-1
 500 700 l 1,11,-1
 500 500 l 1,8,-1
400 300 m 1,12,-1
 600 300 l 1,13,-1
 600 200 l 1,14,-1
 400 200 l 1,15,-1
 400 300 l 1,12,-1
500 200 m 1,16,-1
 700 200 l 1,17,-1
 700 0 l 1,18,-1
 500 0 l 1,19,-1
 500 200 l 1,16,-1
0 100 m 1,20,-1
 100 100 l 1,21,-1
 100 0 l 1,22,-1
 0 0 l 1,23,-1
 0 100 l 1,20,-1
0 700 m 1,24,-1
 100 700 l 1,25,-1
 100 600 l 1,26,-1
 0 600 l 1,27,-1
 0 700 l 1,24,-1
100 700 m 1,28,-1
 300 700 l 1,29,-1
 300 0 l 1,30,-1
 100 0 l 1,31,-1
 100 700 l 1,28,-1
EndSplineSet
EndChar

StartChar: L
Encoding: 76 76 51
Width: 800
VWidth: 0
LayerCount: 2
Fore
SplineSet
0 700 m 1,0,-1
 400 700 l 1,1,-1
 400 600 l 5,2,-1
 0 600 l 1,3,-1
 0 700 l 1,0,-1
100 600 m 1,4,-1
 300 600 l 1,5,-1
 300 100 l 1,6,-1
 100 100 l 1,7,-1
 100 600 l 1,4,-1
600 300 m 1,8,-1
 700 300 l 1,9,-1
 700 200 l 1,10,-1
 600 200 l 1,11,-1
 600 300 l 1,8,-1
500 200 m 1,12,-1
 700 200 l 1,13,-1
 700 100 l 1,14,-1
 500 100 l 1,15,-1
 500 200 l 1,12,-1
0 100 m 1,16,-1
 700 100 l 1,17,-1
 700 0 l 1,18,-1
 0 0 l 1,19,-1
 0 100 l 1,16,-1
EndSplineSet
EndChar

StartChar: M
Encoding: 77 77 52
Width: 800
VWidth: 0
LayerCount: 2
Fore
SplineSet
500 700 m 1,0,-1
 700 700 l 1,1,-1
 700 0 l 5,2,-1
 500 0 l 1,3,-1
 500 700 l 1,0,-1
400 600 m 1,4,-1
 500 600 l 1,5,-1
 500 300 l 1,6,-1
 400 300 l 1,7,-1
 400 600 l 1,4,-1
300 500 m 1,8,-1
 400 500 l 1,9,-1
 400 200 l 1,10,-1
 300 200 l 1,11,-1
 300 500 l 1,8,-1
200 600 m 1,12,-1
 300 600 l 1,13,-1
 300 300 l 1,14,-1
 200 300 l 1,15,-1
 200 600 l 1,12,-1
0 700 m 1,16,-1
 200 700 l 1,17,-1
 200 0 l 1,18,-1
 0 0 l 1,19,-1
 0 700 l 1,16,-1
EndSplineSet
EndChar

StartChar: N
Encoding: 78 78 53
Width: 800
VWidth: 0
LayerCount: 2
Fore
SplineSet
400 400 m 1,0,-1
 500 400 l 1,1,-1
 500 200 l 5,2,-1
 400 200 l 1,3,-1
 400 400 l 1,0,-1
300 500 m 1,4,-1
 400 500 l 1,5,-1
 400 300 l 1,6,-1
 300 300 l 1,7,-1
 300 500 l 1,4,-1
200 600 m 1,8,-1
 300 600 l 1,9,-1
 300 400 l 1,10,-1
 200 400 l 1,11,-1
 200 600 l 1,8,-1
500 700 m 1,12,-1
 700 700 l 1,13,-1
 700 0 l 1,14,-1
 500 0 l 1,15,-1
 500 700 l 1,12,-1
0 700 m 1,16,-1
 200 700 l 1,17,-1
 200 0 l 1,18,-1
 0 0 l 1,19,-1
 0 700 l 1,16,-1
EndSplineSet
EndChar

StartChar: O
Encoding: 79 79 54
Width: 800
VWidth: 0
LayerCount: 2
Fore
SplineSet
500 500 m 1,0,-1
 700 500 l 1,1,-1
 700 200 l 1,2,-1
 500 200 l 1,3,-1
 500 500 l 1,0,-1
0 500 m 1,4,-1
 200 500 l 1,5,-1
 200 200 l 1,6,-1
 0 200 l 1,7,-1
 0 500 l 1,4,-1
400 500 m 1,8,-1
 600 500 l 1,9,-1
 600 600 l 1,10,-1
 400 600 l 1,11,-1
 400 500 l 1,8,-1
100 500 m 1,12,-1
 300 500 l 1,13,-1
 300 600 l 1,14,-1
 100 600 l 1,15,-1
 100 500 l 1,12,-1
200 600 m 1,16,-1
 500 600 l 1,17,-1
 500 700 l 1,18,-1
 200 700 l 1,19,-1
 200 600 l 1,16,-1
400 200 m 1,20,-1
 600 200 l 1,21,-1
 600 100 l 1,22,-1
 400 100 l 1,23,-1
 400 200 l 1,20,-1
100 200 m 1,24,-1
 300 200 l 1,25,-1
 300 100 l 1,26,-1
 100 100 l 1,27,-1
 100 200 l 1,24,-1
127 314 m 1025,28,-1
200 100 m 1,29,-1
 500 100 l 1,30,-1
 500 0 l 1,31,-1
 200 0 l 1,32,-1
 200 100 l 1,29,-1
EndSplineSet
EndChar

StartChar: P
Encoding: 80 80 55
Width: 800
VWidth: 0
LayerCount: 2
Fore
SplineSet
300 400 m 1,0,-1
 600 400 l 1,1,-1
 600 300 l 5,2,-1
 300 300 l 1,3,-1
 300 400 l 1,0,-1
500 600 m 1,4,-1
 700 600 l 1,5,-1
 700 400 l 1,6,-1
 500 400 l 1,7,-1
 500 600 l 1,4,-1
0 700 m 1,8,-1
 600 700 l 1,9,-1
 600 600 l 1,10,-1
 0 600 l 1,11,-1
 0 700 l 1,8,-1
100 600 m 1,12,-1
 300 600 l 1,13,-1
 300 100 l 1,14,-1
 100 100 l 1,15,-1
 100 600 l 1,12,-1
0 100 m 1,16,-1
 400 100 l 1,17,-1
 400 0 l 1,18,-1
 0 0 l 1,19,-1
 0 100 l 1,16,-1
EndSplineSet
EndChar

StartChar: Q
Encoding: 81 81 56
Width: 800
VWidth: 0
LayerCount: 2
Fore
SplineSet
300 300 m 1,0,-1
 400 300 l 1,1,-1
 400 200 l 5,2,-1
 300 200 l 1,3,-1
 300 300 l 1,0,-1
300 100 m 1,4,-1
 600 100 l 1,5,-1
 600 0 l 1,6,-1
 300 0 l 1,7,-1
 300 100 l 1,4,-1
400 600 m 1,8,-1
 600 600 l 1,9,-1
 600 200 l 1,10,-1
 400 200 l 1,11,-1
 400 600 l 1,8,-1
100 700 m 1,12,-1
 500 700 l 1,13,-1
 500 600 l 1,14,-1
 100 600 l 1,15,-1
 100 700 l 1,12,-1
0 600 m 1,16,-1
 200 600 l 1,17,-1
 200 200 l 1,18,-1
 0 200 l 1,19,-1
 0 600 l 1,16,-1
100 200 m 1,20,-1
 500 200 l 1,21,-1
 500 100 l 1,22,-1
 100 100 l 1,23,-1
 100 200 l 1,20,-1
EndSplineSet
EndChar

StartChar: R
Encoding: 82 82 57
Width: 800
VWidth: 0
LayerCount: 2
Fore
SplineSet
500 200 m 1,0,-1
 700 200 l 1,1,-1
 700 0 l 5,2,-1
 500 0 l 1,3,-1
 500 200 l 1,0,-1
400 300 m 1,4,-1
 600 300 l 1,5,-1
 600 200 l 1,6,-1
 400 200 l 1,7,-1
 400 300 l 1,4,-1
300 400 m 1,8,-1
 600 400 l 1,9,-1
 600 300 l 1,10,-1
 300 300 l 1,11,-1
 300 400 l 1,8,-1
500 600 m 1,12,-1
 700 600 l 1,13,-1
 700 400 l 1,14,-1
 500 400 l 1,15,-1
 500 600 l 1,12,-1
300 700 m 1,16,-1
 600 700 l 1,17,-1
 600 600 l 1,18,-1
 300 600 l 1,19,-1
 300 700 l 1,16,-1
0 700 m 1,20,-1
 100 700 l 1,21,-1
 100 600 l 1,22,-1
 0 600 l 1,23,-1
 0 700 l 1,20,-1
0 100 m 1,24,-1
 100 100 l 1,25,-1
 100 0 l 1,26,-1
 0 0 l 1,27,-1
 0 100 l 1,24,-1
100 700 m 1,28,-1
 300 700 l 1,29,-1
 300 0 l 1,30,-1
 100 0 l 1,31,-1
 100 700 l 1,28,-1
EndSplineSet
EndChar

StartChar: S
Encoding: 83 83 58
Width: 800
VWidth: 0
LayerCount: 2
Fore
SplineSet
100 400 m 1,0,-1
 400 400 l 1,1,-1
 400 300 l 1,2,-1
 100 300 l 1,3,-1
 100 400 l 1,0,-1
300 400 m 1,4,-1
 0 400 l 1,5,-1
 0 500 l 1,6,-1
 300 500 l 1,7,-1
 300 400 l 1,4,-1
163 544 m 1025,8,-1
200 500 m 1,9,-1
 0 500 l 1,10,-1
 0 600 l 1,11,-1
 200 600 l 1,12,-1
 200 500 l 1,9,-1
600 500 m 1,13,-1
 400 500 l 1,14,-1
 400 600 l 1,15,-1
 600 600 l 1,16,-1
 600 500 l 1,13,-1
500 600 m 1,17,-1
 100 600 l 1,18,-1
 100 700 l 1,19,-1
 500 700 l 1,20,-1
 500 600 l 1,17,-1
300 300 m 1,21,-1
 600 300 l 1,22,-1
 600 200 l 1,23,-1
 300 200 l 1,24,-1
 300 300 l 1,21,-1
400 200 m 1,25,-1
 600 200 l 1,26,-1
 600 100 l 1,27,-1
 400 100 l 1,28,-1
 400 200 l 1,25,-1
0 200 m 1,29,-1
 200 200 l 1,30,-1
 200 100 l 1,31,-1
 0 100 l 1,32,-1
 0 200 l 1,29,-1
100 100 m 1,33,-1
 500 100 l 1,34,-1
 500 0 l 1,35,-1
 100 0 l 1,36,-1
 100 100 l 1,33,-1
EndSplineSet
EndChar

StartChar: T
Encoding: 84 84 59
Width: 800
VWidth: 0
LayerCount: 2
Fore
SplineSet
100 100 m 1,0,-1
 500 100 l 1,1,-1
 500 0 l 5,2,-1
 100 0 l 1,3,-1
 100 100 l 1,0,-1
200 600 m 1,4,-1
 400 600 l 5,5,-1
 400 100 l 5,6,-1
 200 100 l 1,7,-1
 200 600 l 1,4,-1
500 700 m 1,8,-1
 600 700 l 1,9,-1
 600 500 l 1,10,-1
 500 500 l 1,11,-1
 500 700 l 1,8,-1
100 700 m 1,12,-1
 500 700 l 1,13,-1
 500 600 l 1,14,-1
 100 600 l 1,15,-1
 100 700 l 1,12,-1
0 700 m 1,16,-1
 100 700 l 1,17,-1
 100 500 l 1,18,-1
 0 500 l 1,19,-1
 0 700 l 1,16,-1
EndSplineSet
EndChar

StartChar: U
Encoding: 85 85 60
Width: 800
VWidth: 0
LayerCount: 2
Fore
SplineSet
500 700 m 1,0,-1
 700 700 l 1,1,-1
 700 0 l 5,2,-1
 500 0 l 1,3,-1
 500 700 l 1,0,-1
300 100 m 1,4,-1
 500 100 l 1,5,-1
 500 0 l 1,6,-1
 300 0 l 1,7,-1
 300 100 l 1,4,-1
100 700 m 1,8,-1
 300 700 l 1,9,-1
 300 0 l 1,10,-1
 100 0 l 1,11,-1
 100 700 l 1,8,-1
EndSplineSet
EndChar

StartChar: V
Encoding: 86 86 61
Width: 800
VWidth: 0
LayerCount: 2
Fore
SplineSet
500 700 m 1,0,-1
 700 700 l 1,1,-1
 700 200 l 5,2,-1
 500 200 l 1,3,-1
 500 700 l 1,0,-1
300 100 m 1,4,-1
 500 100 l 1,5,-1
 500 0 l 1,6,-1
 300 0 l 1,7,-1
 300 100 l 1,4,-1
200 200 m 1,8,-1
 600 200 l 1,9,-1
 600 100 l 1,10,-1
 200 100 l 1,11,-1
 200 200 l 1,8,-1
100 700 m 1,12,-1
 300 700 l 1,13,-1
 300 200 l 1,14,-1
 100 200 l 1,15,-1
 100 700 l 1,12,-1
EndSplineSet
EndChar

StartChar: W
Encoding: 87 87 62
Width: 800
VWidth: 0
LayerCount: 2
Fore
SplineSet
500 700 m 1,0,-1
 700 700 l 1,1,-1
 700 0 l 5,2,-1
 500 0 l 1,3,-1
 500 700 l 1,0,-1
400 300 m 1,4,-1
 500 300 l 1,5,-1
 500 100 l 1,6,-1
 400 100 l 1,7,-1
 400 300 l 1,4,-1
300 400 m 1,8,-1
 400 400 l 1,9,-1
 400 200 l 1,10,-1
 300 200 l 1,11,-1
 300 400 l 1,8,-1
200 300 m 1,12,-1
 300 300 l 1,13,-1
 300 100 l 1,14,-1
 200 100 l 1,15,-1
 200 300 l 1,12,-1
0 700 m 1,16,-1
 200 700 l 1,17,-1
 200 0 l 1,18,-1
 0 0 l 1,19,-1
 0 700 l 1,16,-1
EndSplineSet
EndChar

StartChar: X
Encoding: 88 88 63
Width: 800
VWidth: 0
LayerCount: 2
Fore
SplineSet
500 700 m 1,0,-1
 700 700 l 1,1,-1
 700 500 l 5,2,-1
 500 500 l 1,3,-1
 500 700 l 1,0,-1
0 700 m 1,4,-1
 200 700 l 1,5,-1
 200 500 l 1,6,-1
 0 500 l 1,7,-1
 0 700 l 1,4,-1
400 500 m 1,8,-1
 600 500 l 1,9,-1
 600 400 l 1,10,-1
 400 400 l 1,11,-1
 400 500 l 1,8,-1
100 500 m 1,12,-1
 300 500 l 1,13,-1
 300 400 l 1,14,-1
 100 400 l 1,15,-1
 100 500 l 1,12,-1
200 400 m 1,16,-1
 500 400 l 1,17,-1
 500 200 l 1,18,-1
 200 200 l 1,19,-1
 200 400 l 1,16,-1
500 100 m 1,20,-1
 700 100 l 1,21,-1
 700 0 l 1,22,-1
 500 0 l 1,23,-1
 500 100 l 1,20,-1
400 200 m 1,24,-1
 600 200 l 1,25,-1
 600 100 l 1,26,-1
 400 100 l 1,27,-1
 400 200 l 1,24,-1
100 200 m 1,28,-1
 300 200 l 1,29,-1
 300 100 l 1,30,-1
 100 100 l 1,31,-1
 100 200 l 1,28,-1
0 100 m 1,32,-1
 200 100 l 1,33,-1
 200 0 l 1,34,-1
 0 0 l 1,35,-1
 0 100 l 1,32,-1
EndSplineSet
EndChar

StartChar: Y
Encoding: 89 89 64
Width: 800
VWidth: 0
LayerCount: 2
Fore
SplineSet
400 700 m 1,0,-1
 600 700 l 1,1,-1
 600 400 l 5,2,-1
 400 400 l 1,3,-1
 400 700 l 1,0,-1
0 700 m 1,4,-1
 200 700 l 1,5,-1
 200 400 l 1,6,-1
 0 400 l 1,7,-1
 0 700 l 1,4,-1
100 400 m 1,8,-1
 500 400 l 1,9,-1
 500 300 l 1,10,-1
 100 300 l 1,11,-1
 100 400 l 1,8,-1
200 300 m 1,12,-1
 400 300 l 1,13,-1
 400 100 l 1,14,-1
 200 100 l 1,15,-1
 200 300 l 1,12,-1
357 336 m 1025,16,-1
100 100 m 1,17,-1
 500 100 l 1,18,-1
 500 0 l 1,19,-1
 100 0 l 1,20,-1
 100 100 l 1,17,-1
EndSplineSet
EndChar

StartChar: Z
Encoding: 90 90 65
Width: 800
VWidth: 0
LayerCount: 2
Fore
SplineSet
500 600 m 1,0,-1
 700 600 l 1,1,-1
 700 500 l 5,2,-1
 500 500 l 1,3,-1
 500 600 l 1,0,-1
400 500 m 1,4,-1
 600 500 l 1,5,-1
 600 400 l 1,6,-1
 400 400 l 1,7,-1
 400 500 l 1,4,-1
300 400 m 1,8,-1
 500 400 l 1,9,-1
 500 300 l 1,10,-1
 300 300 l 1,11,-1
 300 400 l 1,8,-1
200 300 m 1,12,-1
 400 300 l 1,13,-1
 400 200 l 1,14,-1
 200 200 l 1,15,-1
 200 300 l 1,12,-1
100 200 m 1,16,-1
 300 200 l 1,17,-1
 300 100 l 1,18,-1
 100 100 l 1,19,-1
 100 200 l 1,16,-1
100 400 m 1,20,-1
 0 400 l 1,21,-1
 0 500 l 1,22,-1
 100 500 l 1,23,-1
 100 400 l 1,20,-1
200 500 m 1,24,-1
 0 500 l 1,25,-1
 0 600 l 1,26,-1
 200 600 l 1,27,-1
 200 500 l 1,24,-1
700 600 m 1,28,-1
 0 600 l 1,29,-1
 0 700 l 1,30,-1
 700 700 l 1,31,-1
 700 600 l 1,28,-1
600 300 m 1,32,-1
 700 300 l 1,33,-1
 700 200 l 1,34,-1
 600 200 l 1,35,-1
 600 300 l 1,32,-1
500 200 m 1,36,-1
 700 200 l 1,37,-1
 700 100 l 1,38,-1
 500 100 l 1,39,-1
 500 200 l 1,36,-1
0 100 m 1,40,-1
 700 100 l 1,41,-1
 700 0 l 1,42,-1
 0 0 l 1,43,-1
 0 100 l 1,40,-1
EndSplineSet
EndChar

StartChar: exclam
Encoding: 33 33 66
Width: 800
VWidth: 0
LayerCount: 2
Fore
SplineSet
300 600 m 5,0,-1
 400 600 l 5,1,-1
 400 400 l 5,2,-1
 300 400 l 5,3,-1
 300 600 l 5,0,-1
0 600 m 5,4,-1
 100 600 l 5,5,-1
 100 400 l 5,6,-1
 0 400 l 5,7,-1
 0 600 l 5,4,-1
100 700 m 5,8,-1
 300 700 l 5,9,-1
 300 200 l 5,10,-1
 100 200 l 5,11,-1
 100 700 l 5,8,-1
100 100 m 5,12,-1
 300 100 l 5,13,-1
 300 0 l 5,14,-1
 100 0 l 5,15,-1
 100 100 l 5,12,-1
EndSplineSet
EndChar

StartChar: at
Encoding: 64 64 67
Width: 800
VWidth: 0
LayerCount: 2
Fore
SplineSet
300 500 m 1,0,-1
 700 500 l 1,1,-1
 700 200 l 1,2,-1
 300 200 l 1,3,-1
 300 500 l 1,0,-1
449 514 m 1025,4,-1
500 600 m 1,5,-1
 700 600 l 1,6,-1
 700 500 l 1,7,-1
 500 500 l 1,8,-1
 500 600 l 1,5,-1
109 700 m 1025,9,-1
100 700 m 1,10,-1
 600 700 l 1,11,-1
 600 600 l 1,12,-1
 100 602 l 1,13,-1
 100 700 l 1,10,-1
100 100 m 5,14,-1
 500 100 l 1,15,-1
 500 0 l 5,16,-1
 100 0 l 1,17,-1
 100 100 l 5,14,-1
0 600 m 1,18,-1
 200 600 l 1,19,-1
 200 100 l 1,20,-1
 0 100 l 1,21,-1
 0 600 l 1,18,-1
EndSplineSet
EndChar

StartChar: numbersign
Encoding: 35 35 68
Width: 800
VWidth: 0
LayerCount: 2
Fore
SplineSet
600 300 m 1,0,-1
 700 300 l 1,1,-1
 700 200 l 5,2,-1
 600 200 l 1,3,-1
 600 300 l 1,0,-1
600 500 m 1,4,-1
 700 500 l 1,5,-1
 700 400 l 1,6,-1
 600 400 l 1,7,-1
 600 500 l 1,4,-1
300 300 m 1,8,-1
 400 300 l 1,9,-1
 400 200 l 1,10,-1
 300 200 l 1,11,-1
 300 300 l 1,8,-1
300 500 m 1,12,-1
 400 500 l 1,13,-1
 400 400 l 1,14,-1
 300 400 l 1,15,-1
 300 500 l 1,12,-1
0 500 m 1,16,-1
 100 500 l 1,17,-1
 100 400 l 1,18,-1
 0 400 l 1,19,-1
 0 500 l 1,16,-1
0 300 m 1,20,-1
 100 300 l 1,21,-1
 100 200 l 1,22,-1
 0 200 l 1,23,-1
 0 300 l 1,20,-1
400 700 m 1,24,-1
 600 700 l 1,25,-1
 600 0 l 1,26,-1
 400 0 l 1,27,-1
 400 700 l 1,24,-1
100 700 m 1,28,-1
 300 700 l 1,29,-1
 300 0 l 1,30,-1
 100 0 l 1,31,-1
 100 700 l 1,28,-1
EndSplineSet
EndChar

StartChar: dollar
Encoding: 36 36 69
Width: 800
VWidth: 0
LayerCount: 2
Fore
SplineSet
200 700 m 1,0,-1
 400 700 l 1,1,-1
 400 600 l 5,2,-1
 200 600 l 1,3,-1
 200 700 l 1,0,-1
100 600 m 1,4,-1
 600 600 l 1,5,-1
 600 500 l 1,6,-1
 100 500 l 1,7,-1
 100 600 l 1,4,-1
0 500 m 1,8,-1
 200 500 l 1,9,-1
 200 400 l 1,10,-1
 0 400 l 1,11,-1
 0 500 l 1,8,-1
100 400 m 1,12,-1
 500 400 l 1,13,-1
 500 300 l 1,14,-1
 100 300 l 1,15,-1
 100 400 l 1,12,-1
200 100 m 1,16,-1
 400 100 l 1,17,-1
 400 0 l 1,18,-1
 200 0 l 1,19,-1
 200 100 l 1,16,-1
400 300 m 1,20,-1
 600 300 l 1,21,-1
 600 200 l 1,22,-1
 400 200 l 1,23,-1
 400 300 l 1,20,-1
0 200 m 1,24,-1
 500 200 l 1,25,-1
 500 100 l 1,26,-1
 0 100 l 1,27,-1
 0 200 l 1,24,-1
EndSplineSet
EndChar

StartChar: percent
Encoding: 37 37 70
Width: 800
VWidth: 0
LayerCount: 2
Fore
SplineSet
500 200 m 1,0,-1
 700 200 l 1,1,-1
 700 0 l 5,2,-1
 500 0 l 1,3,-1
 500 200 l 1,0,-1
0 600 m 1,4,-1
 200 600 l 1,5,-1
 200 400 l 1,6,-1
 0 400 l 1,7,-1
 0 600 l 1,4,-1
500 600 m 1,8,-1
 700 600 l 1,9,-1
 700 500 l 1,10,-1
 500 500 l 1,11,-1
 500 600 l 1,8,-1
400 500 m 1,12,-1
 600 500 l 1,13,-1
 600 400 l 1,14,-1
 400 400 l 1,15,-1
 400 500 l 1,12,-1
300 400 m 1,16,-1
 500 400 l 1,17,-1
 500 300 l 1,18,-1
 300 300 l 1,19,-1
 300 400 l 1,16,-1
200 300 m 1,20,-1
 400 300 l 1,21,-1
 400 200 l 1,22,-1
 200 200 l 1,23,-1
 200 300 l 1,20,-1
100 200 m 1,24,-1
 300 200 l 1,25,-1
 300 100 l 1,26,-1
 100 100 l 1,27,-1
 100 200 l 1,24,-1
0 100 m 1,28,-1
 200 100 l 1,29,-1
 200 0 l 1,30,-1
 0 0 l 1,31,-1
 0 100 l 1,28,-1
EndSplineSet
EndChar

StartChar: ampersand
Encoding: 38 38 71
Width: 800
VWidth: 0
LayerCount: 2
Fore
SplineSet
400 600 m 1,0,-1
 600 600 l 1,1,-1
 600 500 l 5,2,-1
 400 500 l 1,3,-1
 400 600 l 1,0,-1
100 600 m 1,4,-1
 300 600 l 1,5,-1
 300 500 l 1,6,-1
 100 500 l 1,7,-1
 100 600 l 1,4,-1
200 700 m 1,8,-1
 500 700 l 1,9,-1
 500 600 l 1,10,-1
 200 600 l 1,11,-1
 200 700 l 1,8,-1
200 500 m 1,12,-1
 500 500 l 1,13,-1
 500 400 l 1,14,-1
 200 400 l 1,15,-1
 200 500 l 1,12,-1
300 300 m 1,16,-1
 400 300 l 1,17,-1
 400 200 l 1,18,-1
 300 200 l 1,19,-1
 300 300 l 1,16,-1
500 400 m 1,20,-1
 700 400 l 1,21,-1
 700 300 l 1,22,-1
 500 300 l 1,23,-1
 500 400 l 1,20,-1
400 300 m 1,24,-1
 600 300 l 1,25,-1
 600 100 l 1,26,-1
 400 100 l 1,27,-1
 400 300 l 1,24,-1
500 100 m 1,28,-1
 700 100 l 1,29,-1
 700 0 l 1,30,-1
 500 0 l 1,31,-1
 500 100 l 1,28,-1
100 400 m 1,32,-1
 400 400 l 1,33,-1
 400 300 l 1,34,-1
 100 300 l 1,35,-1
 100 400 l 1,32,-1
100 100 m 1,36,-1
 400 100 l 1,37,-1
 400 0 l 1,38,-1
 100 0 l 1,39,-1
 100 100 l 1,36,-1
0 300 m 1,40,-1
 200 300 l 1,41,-1
 200 100 l 1,42,-1
 0 100 l 1,43,-1
 0 300 l 1,40,-1
EndSplineSet
EndChar

StartChar: asciicircum
Encoding: 94 94 72
Width: 800
VWidth: 0
LayerCount: 2
Fore
SplineSet
500 400 m 1,0,-1
 700 400 l 1,1,-1
 700 300 l 5,2,-1
 500 300 l 1,3,-1
 500 400 l 1,0,-1
0 400 m 1,4,-1
 200 400 l 1,5,-1
 200 300 l 1,6,-1
 0 300 l 1,7,-1
 0 400 l 1,4,-1
400 500 m 1,8,-1
 600 500 l 1,9,-1
 600 400 l 1,10,-1
 400 400 l 1,11,-1
 400 500 l 1,8,-1
100 500 m 1,12,-1
 300 500 l 1,13,-1
 300 400 l 1,14,-1
 100 400 l 1,15,-1
 100 500 l 1,12,-1
200 600 m 1,16,-1
 500 600 l 1,17,-1
 500 500 l 1,18,-1
 200 500 l 1,19,-1
 200 600 l 1,16,-1
300 700 m 1,20,-1
 400 700 l 1,21,-1
 400 600 l 1,22,-1
 300 600 l 1,23,-1
 300 700 l 1,20,-1
EndSplineSet
EndChar

StartChar: asterisk
Encoding: 42 42 73
Width: 800
VWidth: 0
LayerCount: 2
Fore
SplineSet
500 100 m 1,0,-1
 700 100 l 1,1,-1
 700 0 l 1,2,-1
 500 0 l 5,3,-1
 500 100 l 1,0,-1
100 100 m 1,4,-1
 300 100 l 1,5,-1
 300 0 l 1,6,-1
 100 0 l 1,7,-1
 100 100 l 1,4,-1
500 500 m 1,8,-1
 700 500 l 1,9,-1
 700 400 l 1,10,-1
 500 400 l 1,11,-1
 500 500 l 1,8,-1
100 500 m 1,12,-1
 300 500 l 1,13,-1
 300 400 l 1,14,-1
 100 400 l 1,15,-1
 100 500 l 1,12,-1
600 300 m 1,16,-1
 800 300 l 1,17,-1
 800 200 l 1,18,-1
 600 200 l 1,19,-1
 600 300 l 1,16,-1
200 400 m 1,20,-1
 600 400 l 1,21,-1
 600 100 l 1,22,-1
 200 100 l 1,23,-1
 200 400 l 1,20,-1
0 300 m 1,24,-1
 200 300 l 1,25,-1
 200 200 l 1,26,-1
 0 200 l 1,27,-1
 0 300 l 1,24,-1
EndSplineSet
EndChar

StartChar: underscore
Encoding: 95 95 74
Width: 800
VWidth: 0
LayerCount: 2
Fore
SplineSet
221 386 m 5,0,-1
 236 386 l 5,1,-1
 248 386 l 1,2,-1
 233 386 l 1,3,-1
 221 386 l 5,0,-1
131 542 m 1025,4,-1
146 0 m 1025,5,-1
98 469 m 1025,6,-1
0 -2 m 1,7,-1
 800 -2 l 1,8,-1
 800 -100 l 1,9,-1
 0 -100 l 1,10,-1
 0 -2 l 1,7,-1
EndSplineSet
EndChar

StartChar: period
Encoding: 46 46 75
Width: 800
VWidth: 0
LayerCount: 2
Fore
SplineSet
0 200 m 1,0,-1
 200 200 l 1,1,-1
 200 0 l 5,2,-1
 0 0 l 1,3,-1
 0 200 l 1,0,-1
EndSplineSet
EndChar

StartChar: comma
Encoding: 44 44 76
Width: 800
VWidth: 0
LayerCount: 2
Fore
SplineSet
0 0 m 1,0,-1
 200 0 l 1,1,-1
 200 -100 l 5,2,-1
 0 -100 l 1,3,-1
 0 0 l 1,0,-1
100 200 m 1,4,-1
 300 200 l 1,5,-1
 300 0 l 1,6,-1
 100 0 l 1,7,-1
 100 200 l 1,4,-1
EndSplineSet
EndChar

StartChar: quotesingle
Encoding: 39 39 77
Width: 800
VWidth: 0
LayerCount: 2
Fore
SplineSet
0 500 m 1,0,-1
 200 500 l 1,1,-1
 200 400 l 5,2,-1
 0 400 l 1,3,-1
 0 500 l 1,0,-1
100 700 m 1,4,-1
 300 700 l 1,5,-1
 300 500 l 1,6,-1
 100 500 l 1,7,-1
 100 700 l 1,4,-1
EndSplineSet
EndChar

StartChar: colon
Encoding: 58 58 78
Width: 800
VWidth: 0
LayerCount: 2
Fore
SplineSet
300 600 m 1,0,-1
 500 600 l 1,1,-1
 500 400 l 1,2,-1
 300 400 l 5,3,-1
 300 600 l 1,0,-1
300 200 m 1,4,-1
 500 200 l 1,5,-1
 500 0 l 1,6,-1
 300 0 l 1,7,-1
 300 200 l 1,4,-1
EndSplineSet
EndChar

StartChar: quotedbl
Encoding: 34 34 79
Width: 800
VWidth: 0
LayerCount: 2
Fore
SplineSet
500 700 m 5,0,-1
 700 700 l 1,1,-1
 700 400 l 1,2,-1
 500 400 l 1,3,-1
 500 700 l 5,0,-1
200 700 m 1,4,-1
 400 700 l 1,5,-1
 400 400 l 1,6,-1
 200 400 l 1,7,-1
 200 700 l 1,4,-1
EndSplineSet
EndChar
